<svg version="1.1" xmlns="http://www.w3.org/2000/svg" viewBox="0 0 1752.83203125 704.0468055335623" width="5258.49609375" height="2112.140416600687">
  <!-- svg-source:excalidraw -->
  
  <defs>
    <style class="style-fonts">
      @font-face {
        font-family: "Virgil";
        src: url("https://excalidraw.com/Virgil.woff2");
      }
      @font-face {
        font-family: "Cascadia";
        src: url("https://excalidraw.com/Cascadia.woff2");
      }
    </style>
    
  </defs>
  <rect x="0" y="0" width="1752.83203125" height="704.0468055335623" fill="#ffffff"></rect><g stroke-linecap="round" transform="translate(22.671875 226.04680553356232) rotate(0 33.671875 30.470703125)"><path d="M35.28 1.06 C41.7 0.85, 50.72 2.9, 55.91 6.69 C61.1 10.48, 65.04 18.09, 66.42 23.79 C67.8 29.49, 66.81 35.38, 64.17 40.91 C61.53 46.44, 56.1 53.64, 50.56 56.96 C45.03 60.28, 37.26 61.24, 30.96 60.83 C24.65 60.42, 17.82 58.2, 12.74 54.47 C7.66 50.75, 2.08 44.23, 0.47 38.5 C-1.13 32.76, 0.45 25.56, 3.12 20.07 C5.79 14.58, 10.91 8.77, 16.5 5.55 C22.08 2.33, 33.18 1.48, 36.62 0.74 C40.06 0, 36.95 0.53, 37.12 1.09 M40.63 1.3 C46.79 2.26, 53.34 5.27, 57.74 9.8 C62.14 14.34, 66.36 22.73, 67.05 28.52 C67.75 34.31, 65.2 39.81, 61.92 44.54 C58.64 49.27, 53.38 54.1, 47.38 56.89 C41.38 59.69, 32.38 62.1, 25.91 61.3 C19.44 60.51, 12.66 56.57, 8.58 52.15 C4.49 47.73, 2.14 40.93, 1.41 34.78 C0.68 28.64, 1.16 20.41, 4.2 15.28 C7.24 10.14, 13.61 6.37, 19.67 3.97 C25.72 1.58, 36.96 1.54, 40.54 0.9 C44.11 0.26, 41.34 -0.45, 41.11 0.13" stroke="#1e1e1e" stroke-width="1" fill="none"></path></g><g stroke-linecap="round"><g transform="translate(57.1875 285.7928992835623) rotate(0 2.6117679225979487 46.00680065029303)"><path d="M-0.25 1.08 C0.31 15.99, 2.52 74.95, 3.34 89.91 M1.82 0.59 C2.73 15.68, 5.11 76.7, 5.47 91.42" stroke="#1e1e1e" stroke-width="1" fill="none"></path></g></g><mask></mask><g transform="translate(58.2109375 313.8280555335623) rotate(0 -17.873046875 13.58203125)" stroke="none"><path fill="#1e1e1e" d="M 0.75,1.86 Q 0.75,1.86 -1.79,2.78 -4.34,3.71 -7.49,5.01 -10.65,6.31 -13.77,7.62 -16.90,8.93 -19.60,10.00 -22.30,11.06 -24.52,11.95 -26.73,12.83 -28.22,13.52 -29.71,14.20 -30.85,14.96 -31.98,15.71 -31.28,17.16 -30.59,18.61 -30.35,19.90 -30.11,21.18 -30.00,22.24 -29.89,23.29 -29.91,24.98 -29.93,26.67 -32.68,28.46 -35.42,30.24 -35.92,30.18 -36.41,30.13 -36.87,29.91 -37.32,29.70 -37.68,29.36 -38.04,29.01 -38.27,28.57 -38.51,28.12 -38.58,27.63 -38.66,27.13 -38.58,26.64 -38.49,26.15 -38.26,25.70 -38.02,25.26 -37.65,24.92 -37.29,24.58 -36.83,24.37 -36.38,24.16 -35.88,24.11 -35.38,24.06 -34.89,24.17 -34.41,24.28 -33.98,24.54 -33.55,24.80 -33.23,25.19 -32.91,25.57 -32.73,26.04 -32.54,26.50 -32.52,27.00 -32.49,27.50 -32.63,27.98 -32.77,28.47 -33.05,28.88 -33.33,29.29 -33.73,29.59 -34.14,29.89 -34.61,30.05 -35.09,30.21 -35.59,30.20 -36.09,30.20 -36.56,30.04 -37.03,29.88 -37.43,29.57 -37.83,29.26 -38.11,28.85 -38.38,28.43 -38.51,27.95 -38.65,27.47 -38.62,26.97 -38.59,26.47 -38.40,26.00 -38.21,25.54 -37.88,25.16 -37.56,24.78 -37.13,24.53 -36.70,24.27 -36.21,24.16 -35.72,24.06 -35.72,24.06 -35.72,24.06 -35.70,23.71 -35.69,23.36 -35.63,22.06 -35.56,20.77 -35.69,19.53 -35.82,18.29 -35.79,16.60 -35.75,14.91 -34.86,13.61 -33.98,12.32 -32.45,11.77 -30.92,11.22 -29.38,10.68 -27.84,10.14 -25.64,9.20 -23.45,8.27 -20.81,7.15 -18.17,6.03 -15.08,4.62 -11.99,3.22 -8.85,1.78 -5.70,0.33 -3.22,-0.76 -0.75,-1.86 -0.51,-1.92 -0.28,-1.98 -0.04,-1.99 0.20,-1.99 0.43,-1.94 0.67,-1.89 0.88,-1.78 1.10,-1.67 1.29,-1.51 1.47,-1.36 1.61,-1.16 1.75,-0.96 1.84,-0.74 1.93,-0.52 1.97,-0.28 2.00,-0.04 1.98,0.19 1.95,0.44 1.87,0.66 1.79,0.89 1.66,1.09 1.52,1.29 1.35,1.46 1.17,1.62 0.96,1.74 0.74,1.86 0.75,1.86 L 0.75,1.86 Z"></path></g><g transform="translate(58.99609375 311.1288367835623) rotate(0 34.095703125 14.41015625)" stroke="none"><path fill="#1e1e1e" d="M 0,-1.67 Q 0,-1.67 2.94,-1.62 5.89,-1.58 9.96,-1.54 14.02,-1.50 19.27,-1.48 24.51,-1.45 30.29,-1.43 36.07,-1.41 41.14,-1.26 46.20,-1.11 50.15,-0.62 54.10,-0.13 57.11,0.72 60.11,1.58 62.10,2.65 64.09,3.72 65.41,4.83 66.73,5.95 67.55,7.29 68.37,8.62 68.77,10.18 69.18,11.74 69.34,13.44 69.50,15.14 69.56,16.81 69.63,18.49 69.69,20.01 69.74,21.53 69.80,22.85 69.86,24.17 70.00,25.80 70.14,27.44 70.26,27.69 70.39,27.93 70.43,28.23 70.48,28.54 70.45,28.85 70.42,29.15 70.32,29.44 70.21,29.74 70.05,29.99 69.88,30.25 69.65,30.46 69.43,30.67 69.16,30.82 68.89,30.97 68.59,31.05 68.29,31.13 67.99,31.14 67.68,31.15 67.38,31.08 67.07,31.02 66.80,30.88 66.52,30.75 66.29,30.55 66.05,30.35 65.87,30.10 65.69,29.85 65.57,29.57 65.45,29.28 65.45,26.78 65.45,24.27 65.52,23.84 65.59,23.40 65.80,23.01 66.00,22.61 66.33,22.31 66.65,22.01 67.05,21.82 67.45,21.63 67.89,21.59 68.33,21.54 68.77,21.63 69.20,21.73 69.58,21.96 69.96,22.19 70.25,22.52 70.53,22.86 70.70,23.27 70.86,23.68 70.89,24.13 70.91,24.57 70.79,25.00 70.67,25.42 70.42,25.79 70.18,26.16 69.82,26.43 69.47,26.69 69.05,26.84 68.63,26.98 68.19,26.98 67.74,26.98 67.32,26.84 66.90,26.69 66.55,26.43 66.20,26.16 65.95,25.79 65.70,25.42 65.58,25.00 65.46,24.57 65.49,24.13 65.51,23.68 65.67,23.27 65.84,22.86 66.13,22.52 66.41,22.18 66.79,21.96 67.17,21.73 67.61,21.63 68.04,21.54 68.48,21.59 68.92,21.63 69.32,21.82 69.72,22.01 70.05,22.31 70.37,22.62 70.58,23.01 70.78,23.40 70.86,23.84 70.93,24.27 70.93,24.27 70.93,24.27 70.66,26.10 70.39,27.93 70.43,28.23 70.48,28.54 70.45,28.85 70.42,29.15 70.32,29.44 70.21,29.73 70.05,29.99 69.88,30.25 69.65,30.46 69.43,30.67 69.16,30.82 68.89,30.97 68.59,31.05 68.29,31.13 67.99,31.14 67.68,31.15 67.38,31.08 67.08,31.02 66.80,30.88 66.52,30.75 66.29,30.55 66.05,30.35 65.87,30.10 65.69,29.85 65.57,29.57 65.45,29.28 65.37,28.40 65.28,27.52 65.39,25.86 65.50,24.19 65.54,22.89 65.59,21.58 65.60,20.09 65.62,18.60 65.59,17.01 65.57,15.41 65.50,13.93 65.44,12.45 65.33,11.30 65.22,10.14 64.88,9.13 64.54,8.13 63.65,7.10 62.77,6.07 61.06,5.12 59.36,4.17 56.56,3.37 53.76,2.57 49.95,2.11 46.13,1.65 41.10,1.53 36.07,1.41 30.29,1.43 24.51,1.45 19.27,1.48 14.02,1.50 9.96,1.54 5.89,1.58 2.94,1.62 0,1.67 -0.20,1.65 -0.40,1.63 -0.59,1.55 -0.78,1.48 -0.94,1.37 -1.11,1.25 -1.24,1.10 -1.38,0.95 -1.47,0.77 -1.57,0.59 -1.61,0.39 -1.66,0.20 -1.66,-0.00 -1.66,-0.20 -1.61,-0.39 -1.57,-0.59 -1.47,-0.77 -1.38,-0.95 -1.24,-1.10 -1.11,-1.25 -0.94,-1.37 -0.78,-1.48 -0.59,-1.55 -0.40,-1.63 -0.20,-1.65 0.00,-1.67 0.00,-1.67 L 0,-1.67 Z"></path></g><g transform="translate(57.4453125 373.1210242835623) rotate(0 -23.72265625 56.009765625)" stroke="none"><path fill="#1e1e1e" d="M 1.47,0.52 Q 1.47,0.52 0.75,2.48 0.02,4.44 -1.94,8.47 -3.91,12.50 -6.90,18.42 -9.89,24.34 -13.53,31.43 -17.17,38.53 -20.97,46.16 -24.76,53.79 -28.01,61.02 -31.25,68.25 -33.78,74.74 -36.31,81.22 -38.02,86.24 -39.72,91.27 -40.82,95.06 -41.91,98.85 -42.64,101.73 -43.37,104.61 -43.72,106.46 -44.07,108.30 -44.09,109.87 -44.12,111.45 -44.12,111.67 -44.11,111.90 -44.17,112.12 -44.22,112.34 -44.33,112.55 -44.44,112.75 -44.60,112.92 -44.75,113.09 -44.94,113.22 -45.13,113.35 -45.35,113.43 -45.56,113.51 -45.79,113.53 -46.02,113.56 -46.25,113.53 -46.48,113.50 -46.69,113.41 -46.91,113.33 -47.09,113.19 -47.28,113.06 -47.43,112.89 -47.58,112.71 -47.69,112.51 -47.79,112.30 -47.85,112.08 -47.90,111.86 -47.90,111.63 -47.89,111.40 -48.46,110.19 -49.02,108.99 -49.13,108.68 -49.23,108.37 -49.23,108.05 -49.22,107.73 -49.12,107.42 -49.01,107.11 -48.81,106.85 -48.62,106.60 -48.35,106.42 -48.08,106.24 -47.76,106.15 -47.45,106.07 -47.13,106.09 -46.80,106.11 -46.50,106.23 -46.20,106.35 -45.96,106.56 -45.71,106.77 -45.54,107.05 -45.38,107.33 -45.31,107.65 -45.24,107.97 -45.28,108.29 -45.32,108.61 -45.45,108.90 -45.59,109.20 -45.82,109.43 -46.04,109.67 -46.33,109.82 -46.62,109.97 -46.94,110.02 -47.26,110.07 -47.58,110.01 -47.90,109.96 -48.18,109.81 -48.47,109.65 -48.69,109.41 -48.91,109.18 -49.05,108.88 -49.18,108.59 -49.22,108.26 -49.25,107.94 -49.18,107.62 -49.11,107.31 -48.94,107.03 -48.77,106.75 -48.52,106.54 -48.27,106.34 -47.97,106.22 -47.67,106.10 -47.34,106.08 -47.02,106.07 -46.70,106.16 -46.39,106.25 -46.12,106.43 -45.86,106.61 -45.66,106.87 -45.47,107.13 -45.47,107.13 -45.47,107.13 -44.79,109.52 -44.11,111.90 -44.17,112.12 -44.22,112.34 -44.33,112.55 -44.44,112.75 -44.60,112.92 -44.75,113.09 -44.94,113.22 -45.13,113.35 -45.35,113.43 -45.56,113.51 -45.79,113.53 -46.02,113.56 -46.25,113.53 -46.48,113.50 -46.69,113.41 -46.91,113.33 -47.09,113.19 -47.28,113.06 -47.43,112.89 -47.58,112.71 -47.69,112.51 -47.79,112.30 -47.84,112.08 -47.90,111.86 -47.90,111.63 -47.89,111.40 -47.66,110.62 -47.44,109.85 -47.14,108.78 -46.84,107.70 -46.39,105.83 -45.94,103.96 -45.20,101.04 -44.47,98.12 -43.36,94.26 -42.25,90.41 -40.53,85.33 -38.81,80.24 -36.27,73.69 -33.72,67.15 -30.47,59.86 -27.22,52.57 -23.43,44.92 -19.65,37.26 -16.03,30.16 -12.42,23.07 -9.48,17.15 -6.54,11.23 -4.68,7.33 -2.82,3.43 -2.14,1.45 -1.47,-0.52 -1.39,-0.69 -1.30,-0.86 -1.18,-1.00 -1.06,-1.14 -0.91,-1.25 -0.75,-1.36 -0.58,-1.44 -0.40,-1.51 -0.22,-1.53 -0.03,-1.56 0.15,-1.54 0.34,-1.52 0.51,-1.46 0.69,-1.40 0.85,-1.29 1.01,-1.19 1.14,-1.05 1.26,-0.91 1.35,-0.75 1.45,-0.58 1.50,-0.40 1.54,-0.22 1.55,-0.03 1.55,0.15 1.51,0.33 1.47,0.52 1.47,0.52 L 1.47,0.52 Z"></path></g><g transform="translate(64.8203125 376.9178992835623) rotate(0 23.328125 38.0859375)" stroke="none"><path fill="#1e1e1e" d="M 0.20,-1.86 Q 0.20,-1.86 2.28,-1.56 4.35,-1.27 8.20,-0.23 12.05,0.80 16.75,2.47 21.46,4.14 25.65,5.92 29.84,7.71 33.30,9.44 36.77,11.17 39.34,12.83 41.90,14.49 43.48,15.85 45.05,17.21 45.98,18.24 46.91,19.27 47.44,20.32 47.96,21.37 48.22,22.68 48.49,23.99 48.41,26.15 48.34,28.31 48.04,31.93 47.74,35.55 47.27,40.55 46.80,45.54 46.35,50.57 45.91,55.59 45.59,59.60 45.28,63.60 45.08,66.49 44.88,69.38 44.82,71.16 44.77,72.93 44.59,73.91 44.40,74.89 44.37,75.08 44.33,75.27 44.25,75.44 44.17,75.62 44.05,75.77 43.93,75.92 43.78,76.04 43.62,76.16 43.45,76.24 43.27,76.32 43.08,76.35 42.89,76.39 42.70,76.38 42.50,76.36 42.32,76.31 42.13,76.25 41.97,76.15 41.80,76.05 41.67,75.91 41.53,75.77 41.43,75.60 41.33,75.44 41.27,75.25 41.22,75.07 41.20,74.87 41.19,74.68 41.20,74.60 41.21,74.52 41.30,74.27 41.38,74.03 41.54,73.82 41.70,73.61 41.91,73.47 42.13,73.32 42.38,73.25 42.63,73.18 42.89,73.20 43.15,73.21 43.39,73.31 43.63,73.41 43.83,73.58 44.03,73.75 44.16,73.97 44.29,74.19 44.35,74.45 44.40,74.70 44.37,74.96 44.35,75.22 44.24,75.45 44.13,75.69 43.95,75.88 43.77,76.07 43.54,76.19 43.31,76.31 43.05,76.35 42.79,76.39 42.54,76.35 42.28,76.31 42.05,76.18 41.82,76.06 41.64,75.87 41.46,75.68 41.36,75.44 41.25,75.21 41.22,74.95 41.19,74.69 41.25,74.44 41.31,74.18 41.44,73.96 41.58,73.74 41.77,73.57 41.97,73.40 42.22,73.31 42.46,73.21 42.72,73.20 42.98,73.19 43.23,73.26 43.48,73.33 43.69,73.47 43.91,73.62 44.06,73.83 44.22,74.04 44.30,74.28 44.39,74.53 44.39,74.71 44.40,74.89 44.37,75.08 44.33,75.27 44.25,75.44 44.17,75.62 44.05,75.77 43.93,75.92 43.78,76.04 43.63,76.16 43.45,76.24 43.27,76.32 43.08,76.35 42.89,76.39 42.70,76.38 42.50,76.36 42.32,76.31 42.13,76.25 41.97,76.15 41.80,76.05 41.67,75.91 41.53,75.77 41.43,75.60 41.33,75.44 41.27,75.25 41.22,75.07 41.20,74.87 41.19,74.68 41.44,73.71 41.68,72.74 41.85,70.97 42.02,69.21 42.17,66.30 42.33,63.39 42.58,59.37 42.84,55.35 43.20,50.31 43.56,45.28 43.91,40.30 44.26,35.33 44.40,31.81 44.54,28.29 44.48,26.38 44.42,24.47 44.31,22.86 44.20,21.25 43.66,20.30 43.11,19.36 41.75,18.11 40.39,16.85 37.94,15.29 35.50,13.74 32.10,12.09 28.69,10.44 24.57,8.74 20.45,7.05 15.84,5.50 11.24,3.95 7.60,3.07 3.96,2.19 1.88,2.02 -0.20,1.86 -0.42,1.81 -0.64,1.76 -0.84,1.65 -1.05,1.55 -1.22,1.40 -1.39,1.25 -1.52,1.07 -1.65,0.89 -1.73,0.67 -1.81,0.46 -1.84,0.24 -1.87,0.01 -1.85,-0.20 -1.82,-0.42 -1.74,-0.64 -1.67,-0.85 -1.54,-1.04 -1.41,-1.23 -1.25,-1.38 -1.08,-1.53 -0.88,-1.64 -0.68,-1.74 -0.46,-1.80 -0.24,-1.86 -0.01,-1.86 0.20,-1.86 0.20,-1.86 L 0.20,-1.86 Z"></path></g><g transform="translate(25.375 463.6405555335623) rotate(0 40.21198272705078 22.5)"><text x="0" y="0" font-family="Virgil, Segoe UI Emoji" font-size="36px" fill="#e03131" text-anchor="start" style="white-space: pre;" direction="ltr" dominant-baseline="text-before-edge">User</text></g><g stroke-linecap="round"><g transform="translate(160.078125 346.2108680335623) rotate(0 103.57595052359162 -3.3297654677461708)"><path d="M0.56 -0.93 C35.13 -2.03, 173.3 -5.13, 207.76 -6.1 M-0.61 1.19 C33.74 -0.29, 171.48 -6.76, 206.54 -7.85" stroke="#e03131" stroke-width="1" fill="none"></path></g><g transform="translate(160.078125 346.2108680335623) rotate(0 103.57595052359162 -3.3297654677461708)"><path d="M177.23 2.67 C188.96 -1.89, 196.97 -4.21, 206.63 -9.63 M178.66 3 C188.8 -1.19, 199.76 -5.64, 207.32 -7.83" stroke="#e03131" stroke-width="1" fill="none"></path></g><g transform="translate(160.078125 346.2108680335623) rotate(0 103.57595052359162 -3.3297654677461708)"><path d="M176.41 -17.84 C188.49 -15.71, 196.77 -11.33, 206.63 -9.63 M177.84 -17.51 C188.14 -14.04, 199.41 -10.85, 207.32 -7.83" stroke="#e03131" stroke-width="1" fill="none"></path></g></g><mask></mask><g stroke-linecap="round" transform="translate(207.06640625 253.35539928356232) rotate(0 46.5 43.5)"><path d="M39.98 1.05 C47.91 -0.62, 59.41 0.89, 66.98 4.27 C74.55 7.64, 80.95 14.48, 85.4 21.3 C89.86 28.12, 93.8 37.41, 93.72 45.17 C93.63 52.93, 89.64 61.45, 84.87 67.83 C80.09 74.22, 72.7 80.48, 65.06 83.47 C57.42 86.46, 47.19 86.95, 39.01 85.8 C30.83 84.65, 22.28 81.74, 15.99 76.59 C9.7 71.44, 3.63 62.51, 1.26 54.91 C-1.1 47.31, -0.81 38.3, 1.79 31 C4.39 23.7, 9.86 16.33, 16.87 11.11 C23.89 5.88, 38.84 1.47, 43.88 -0.34 C48.91 -2.16, 47.06 -0.7, 47.08 0.22 M44.9 0.08 C53.14 -0.25, 64.16 3.68, 71.66 8.03 C79.16 12.37, 86.42 19.36, 89.91 26.17 C93.4 32.98, 93.95 41.42, 92.61 48.87 C91.27 56.32, 87.51 65.04, 81.88 70.86 C76.25 76.68, 67 81.51, 58.83 83.8 C50.65 86.1, 40.68 86.77, 32.86 84.63 C25.03 82.49, 17.18 76.69, 11.89 70.98 C6.61 65.27, 2.25 57.71, 1.14 50.35 C0.03 43, 2.17 33.9, 5.25 26.86 C8.32 19.82, 12.62 12.61, 19.59 8.1 C26.55 3.59, 42.65 0.94, 47.03 -0.22 C51.4 -1.37, 45.81 0.52, 45.81 1.18" stroke="#e03131" stroke-width="1" fill="none"></path></g><g transform="translate(228.71995276564587 274.5962543019475) rotate(0 24.965988159179688 22.5)"><text x="24.965988159179688" y="0" font-family="Virgil, Segoe UI Emoji" font-size="36px" fill="#e03131" text-anchor="middle" style="white-space: pre;" direction="ltr" dominant-baseline="text-before-edge">OP</text></g><g stroke-linecap="round" transform="translate(416.373046875 232.83391490856232) rotate(0 33.671875 30.470703125)"><path d="M26.59 0.31 C32.79 -1.13, 41.43 0.33, 47.5 2.84 C53.58 5.34, 59.65 10.18, 63.03 15.33 C66.41 20.47, 68.34 27.7, 67.76 33.71 C67.17 39.71, 63.98 47, 59.53 51.37 C55.07 55.75, 47.7 58.88, 41.05 59.97 C34.4 61.06, 25.55 60.26, 19.62 57.93 C13.69 55.59, 8.8 51.14, 5.47 45.97 C2.15 40.8, -0.88 32.92, -0.34 26.89 C0.2 20.87, 3.58 14.12, 8.72 9.81 C13.85 5.5, 26.42 2.61, 30.46 1.03 C34.5 -0.55, 32.87 -0.18, 32.95 0.32 M20.79 1.04 C26.88 -1.41, 36.56 0.48, 43.14 1.9 C49.72 3.32, 56.34 5.39, 60.25 9.57 C64.16 13.75, 66.42 20.77, 66.62 26.98 C66.82 33.19, 64.74 41.56, 61.45 46.83 C58.15 52.09, 53.06 56.13, 46.87 58.56 C40.68 60.99, 30.91 62.9, 24.31 61.42 C17.71 59.93, 11.26 54.53, 7.25 49.63 C3.25 44.73, 0.56 37.97, 0.31 32.02 C0.05 26.07, 2.05 18.92, 5.73 13.94 C9.4 8.95, 19.98 4.05, 22.36 2.12 C24.73 0.18, 20.02 2.07, 19.97 2.34" stroke="#1e1e1e" stroke-width="1" fill="none"></path></g><g stroke-linecap="round"><g transform="translate(450.888671875 292.5800086585623) rotate(0 2.4865733180707252 44.75271308645608)"><path d="M-0.53 -0.79 C0.2 14.19, 2.61 75.07, 3.35 90.29 M1.39 1.41 C2.58 15.97, 5.25 73.83, 5.5 88.34" stroke="#1e1e1e" stroke-width="1" fill="none"></path></g></g><mask></mask><g transform="translate(451.912109375 320.6151649085623) rotate(0 -17.873046875 13.58203125)" stroke="none"><path fill="#1e1e1e" d="M 0.75,1.86 Q 0.75,1.86 -1.79,2.78 -4.34,3.71 -7.49,5.01 -10.65,6.31 -13.77,7.62 -16.90,8.93 -19.60,10.00 -22.30,11.06 -24.52,11.95 -26.73,12.83 -28.22,13.52 -29.71,14.20 -30.85,14.96 -31.98,15.71 -31.28,17.16 -30.59,18.61 -30.35,19.90 -30.11,21.18 -30.00,22.24 -29.89,23.29 -29.91,24.98 -29.93,26.67 -32.68,28.46 -35.42,30.24 -35.92,30.18 -36.41,30.13 -36.87,29.91 -37.32,29.70 -37.68,29.36 -38.04,29.01 -38.27,28.57 -38.51,28.12 -38.58,27.63 -38.66,27.13 -38.58,26.64 -38.49,26.15 -38.26,25.70 -38.02,25.26 -37.65,24.92 -37.29,24.58 -36.83,24.37 -36.38,24.16 -35.88,24.11 -35.38,24.06 -34.89,24.17 -34.41,24.28 -33.98,24.54 -33.55,24.80 -33.23,25.19 -32.91,25.57 -32.73,26.04 -32.54,26.50 -32.52,27.00 -32.49,27.50 -32.63,27.98 -32.77,28.47 -33.05,28.88 -33.33,29.29 -33.73,29.59 -34.14,29.89 -34.61,30.05 -35.09,30.21 -35.59,30.20 -36.09,30.20 -36.56,30.04 -37.03,29.88 -37.43,29.57 -37.83,29.26 -38.11,28.85 -38.38,28.43 -38.51,27.95 -38.65,27.47 -38.62,26.97 -38.59,26.47 -38.40,26.00 -38.21,25.54 -37.88,25.16 -37.56,24.78 -37.13,24.53 -36.70,24.27 -36.21,24.16 -35.72,24.06 -35.72,24.06 -35.72,24.06 -35.70,23.71 -35.69,23.36 -35.63,22.06 -35.56,20.77 -35.69,19.53 -35.82,18.29 -35.79,16.60 -35.75,14.91 -34.86,13.61 -33.98,12.32 -32.45,11.77 -30.92,11.22 -29.38,10.68 -27.84,10.14 -25.64,9.20 -23.45,8.27 -20.81,7.15 -18.17,6.03 -15.08,4.62 -11.99,3.22 -8.85,1.78 -5.70,0.33 -3.22,-0.76 -0.75,-1.86 -0.51,-1.92 -0.28,-1.98 -0.04,-1.99 0.20,-1.99 0.43,-1.94 0.67,-1.89 0.88,-1.78 1.10,-1.67 1.29,-1.51 1.47,-1.36 1.61,-1.16 1.75,-0.96 1.84,-0.74 1.93,-0.52 1.97,-0.28 2.00,-0.04 1.98,0.19 1.95,0.44 1.87,0.66 1.79,0.89 1.66,1.09 1.52,1.29 1.35,1.46 1.17,1.62 0.96,1.74 0.74,1.86 0.75,1.86 L 0.75,1.86 Z"></path></g><g transform="translate(452.697265625 317.9159461585623) rotate(0 34.095703125 14.41015625)" stroke="none"><path fill="#1e1e1e" d="M 0,-1.67 Q 0,-1.67 2.94,-1.62 5.89,-1.58 9.96,-1.54 14.02,-1.50 19.27,-1.48 24.51,-1.45 30.29,-1.43 36.07,-1.41 41.14,-1.26 46.20,-1.11 50.15,-0.62 54.10,-0.13 57.11,0.72 60.11,1.58 62.10,2.65 64.09,3.72 65.41,4.83 66.73,5.95 67.55,7.29 68.37,8.62 68.77,10.18 69.18,11.74 69.34,13.44 69.50,15.14 69.56,16.81 69.63,18.49 69.69,20.01 69.74,21.53 69.80,22.85 69.86,24.17 70.00,25.80 70.14,27.44 70.26,27.69 70.39,27.93 70.43,28.23 70.48,28.54 70.45,28.85 70.42,29.15 70.32,29.44 70.21,29.74 70.05,29.99 69.88,30.25 69.65,30.46 69.43,30.67 69.16,30.82 68.89,30.97 68.59,31.05 68.29,31.13 67.99,31.14 67.68,31.15 67.38,31.08 67.07,31.02 66.80,30.88 66.52,30.75 66.29,30.55 66.05,30.35 65.87,30.10 65.69,29.85 65.57,29.57 65.45,29.28 65.45,26.78 65.45,24.27 65.52,23.84 65.59,23.40 65.80,23.01 66.00,22.61 66.33,22.31 66.65,22.01 67.05,21.82 67.45,21.63 67.89,21.59 68.33,21.54 68.77,21.63 69.20,21.73 69.58,21.96 69.96,22.19 70.25,22.52 70.53,22.86 70.70,23.27 70.86,23.68 70.89,24.13 70.91,24.57 70.79,25.00 70.67,25.42 70.42,25.79 70.18,26.16 69.82,26.43 69.47,26.69 69.05,26.84 68.63,26.98 68.19,26.98 67.74,26.98 67.32,26.84 66.90,26.69 66.55,26.43 66.20,26.16 65.95,25.79 65.70,25.42 65.58,25.00 65.46,24.57 65.49,24.13 65.51,23.68 65.67,23.27 65.84,22.86 66.13,22.52 66.41,22.18 66.79,21.96 67.17,21.73 67.61,21.63 68.04,21.54 68.48,21.59 68.92,21.63 69.32,21.82 69.72,22.01 70.05,22.31 70.37,22.62 70.58,23.01 70.78,23.40 70.86,23.84 70.93,24.27 70.93,24.27 70.93,24.27 70.66,26.10 70.39,27.93 70.43,28.23 70.48,28.54 70.45,28.85 70.42,29.15 70.32,29.44 70.21,29.73 70.05,29.99 69.88,30.25 69.65,30.46 69.43,30.67 69.16,30.82 68.89,30.97 68.59,31.05 68.29,31.13 67.99,31.14 67.68,31.15 67.38,31.08 67.08,31.02 66.80,30.88 66.52,30.75 66.29,30.55 66.05,30.35 65.87,30.10 65.69,29.85 65.57,29.57 65.45,29.28 65.37,28.40 65.28,27.52 65.39,25.86 65.50,24.19 65.54,22.89 65.59,21.58 65.60,20.09 65.62,18.60 65.59,17.01 65.57,15.41 65.50,13.93 65.44,12.45 65.33,11.30 65.22,10.14 64.88,9.13 64.54,8.13 63.65,7.10 62.77,6.07 61.06,5.12 59.36,4.17 56.56,3.37 53.76,2.57 49.95,2.11 46.13,1.65 41.10,1.53 36.07,1.41 30.29,1.43 24.51,1.45 19.27,1.48 14.02,1.50 9.96,1.54 5.89,1.58 2.94,1.62 0,1.67 -0.20,1.65 -0.40,1.63 -0.59,1.55 -0.78,1.48 -0.94,1.37 -1.11,1.25 -1.24,1.10 -1.38,0.95 -1.47,0.77 -1.57,0.59 -1.61,0.39 -1.66,0.20 -1.66,-0.00 -1.66,-0.20 -1.61,-0.39 -1.57,-0.59 -1.47,-0.77 -1.38,-0.95 -1.24,-1.10 -1.11,-1.25 -0.94,-1.37 -0.78,-1.48 -0.59,-1.55 -0.40,-1.63 -0.20,-1.65 0.00,-1.67 0.00,-1.67 L 0,-1.67 Z"></path></g><g transform="translate(458.521484375 383.7050086585623) rotate(0 23.328125 38.0859375)" stroke="none"><path fill="#1e1e1e" d="M 0.20,-1.86 Q 0.20,-1.86 2.28,-1.56 4.35,-1.27 8.20,-0.23 12.05,0.80 16.75,2.47 21.46,4.14 25.65,5.92 29.84,7.71 33.30,9.44 36.77,11.17 39.34,12.83 41.90,14.49 43.48,15.85 45.05,17.21 45.98,18.24 46.91,19.27 47.44,20.32 47.96,21.37 48.22,22.68 48.49,23.99 48.41,26.15 48.34,28.31 48.04,31.93 47.74,35.55 47.27,40.55 46.80,45.54 46.35,50.57 45.91,55.59 45.59,59.60 45.28,63.60 45.08,66.49 44.88,69.38 44.82,71.16 44.77,72.93 44.59,73.91 44.40,74.89 44.37,75.08 44.33,75.27 44.25,75.44 44.17,75.62 44.05,75.77 43.93,75.92 43.78,76.04 43.62,76.16 43.45,76.24 43.27,76.32 43.08,76.35 42.89,76.39 42.70,76.38 42.50,76.36 42.32,76.31 42.13,76.25 41.97,76.15 41.80,76.05 41.67,75.91 41.53,75.77 41.43,75.60 41.33,75.44 41.27,75.25 41.22,75.07 41.20,74.87 41.19,74.68 41.20,74.60 41.21,74.52 41.30,74.27 41.38,74.03 41.54,73.82 41.70,73.61 41.91,73.47 42.13,73.32 42.38,73.25 42.63,73.18 42.89,73.20 43.15,73.21 43.39,73.31 43.63,73.41 43.83,73.58 44.03,73.75 44.16,73.97 44.29,74.19 44.35,74.45 44.40,74.70 44.37,74.96 44.35,75.22 44.24,75.45 44.13,75.69 43.95,75.88 43.77,76.07 43.54,76.19 43.31,76.31 43.05,76.35 42.79,76.39 42.54,76.35 42.28,76.31 42.05,76.18 41.82,76.06 41.64,75.87 41.46,75.68 41.36,75.44 41.25,75.21 41.22,74.95 41.19,74.69 41.25,74.44 41.31,74.18 41.44,73.96 41.58,73.74 41.77,73.57 41.97,73.40 42.22,73.31 42.46,73.21 42.72,73.20 42.98,73.19 43.23,73.26 43.48,73.33 43.69,73.47 43.91,73.62 44.06,73.83 44.22,74.04 44.30,74.28 44.39,74.53 44.39,74.71 44.40,74.89 44.37,75.08 44.33,75.27 44.25,75.44 44.17,75.62 44.05,75.77 43.93,75.92 43.78,76.04 43.63,76.16 43.45,76.24 43.27,76.32 43.08,76.35 42.89,76.39 42.70,76.38 42.50,76.36 42.32,76.31 42.13,76.25 41.97,76.15 41.80,76.05 41.67,75.91 41.53,75.77 41.43,75.60 41.33,75.44 41.27,75.25 41.22,75.07 41.20,74.87 41.19,74.68 41.44,73.71 41.68,72.74 41.85,70.97 42.02,69.21 42.17,66.30 42.33,63.39 42.58,59.37 42.84,55.35 43.20,50.31 43.56,45.28 43.91,40.30 44.26,35.33 44.40,31.81 44.54,28.29 44.48,26.38 44.42,24.47 44.31,22.86 44.20,21.25 43.66,20.30 43.11,19.36 41.75,18.11 40.39,16.85 37.94,15.29 35.50,13.74 32.10,12.09 28.69,10.44 24.57,8.74 20.45,7.05 15.84,5.50 11.24,3.95 7.60,3.07 3.96,2.19 1.88,2.02 -0.20,1.86 -0.42,1.81 -0.64,1.76 -0.84,1.65 -1.05,1.55 -1.22,1.40 -1.39,1.25 -1.52,1.07 -1.65,0.89 -1.73,0.67 -1.81,0.46 -1.84,0.24 -1.87,0.01 -1.85,-0.20 -1.82,-0.42 -1.74,-0.64 -1.67,-0.85 -1.54,-1.04 -1.41,-1.23 -1.25,-1.38 -1.08,-1.53 -0.88,-1.64 -0.68,-1.74 -0.46,-1.80 -0.24,-1.86 -0.01,-1.86 0.20,-1.86 0.20,-1.86 L 0.20,-1.86 Z"></path></g><g transform="translate(451.45703125 385.8163367835623) rotate(0 -17.76953125 41.501953125)" stroke="none"><path fill="#1e1e1e" d="M 0.63,1.99 Q 0.63,1.99 -3.40,3.16 -7.45,4.34 -11.29,5.65 -15.13,6.96 -18.36,8.16 -21.59,9.36 -24.00,10.28 -26.41,11.20 -27.80,11.86 -29.19,12.52 -28.43,13.62 -27.68,14.71 -27.02,15.72 -26.37,16.73 -25.84,18.25 -25.31,19.76 -24.90,21.62 -24.49,23.48 -24.11,25.34 -23.73,27.21 -23.37,28.74 -23.02,30.28 -22.50,31.87 -21.98,33.45 -21.67,34.56 -21.35,35.67 -20.89,37.62 -20.43,39.58 -20.59,41.57 -20.74,43.56 -21.09,45.92 -21.43,48.29 -21.86,50.48 -22.29,52.67 -22.56,54.34 -22.84,56.01 -22.93,57.67 -23.02,59.33 -23.48,61.11 -23.94,62.90 -24.42,64.14 -24.90,65.39 -25.38,66.62 -25.86,67.85 -26.41,69.51 -26.97,71.17 -27.30,72.18 -27.64,73.19 -28.66,75.05 -29.67,76.91 -30.31,78.16 -30.95,79.41 -31.83,81.51 -32.71,83.61 -32.96,84.00 -33.20,84.39 -33.55,84.69 -33.91,84.98 -34.34,85.14 -34.76,85.31 -35.22,85.33 -35.68,85.34 -36.12,85.22 -36.57,85.09 -36.94,84.82 -37.32,84.56 -37.59,84.19 -37.87,83.82 -38.01,83.38 -38.15,82.95 -38.14,82.49 -38.13,82.03 -37.98,81.60 -37.83,81.16 -37.55,80.80 -37.26,80.44 -36.88,80.18 -36.50,79.93 -36.05,79.82 -35.61,79.70 -35.15,79.73 -34.69,79.76 -34.27,79.94 -33.84,80.11 -33.50,80.41 -33.15,80.72 -32.92,81.11 -32.69,81.51 -32.59,81.96 -32.50,82.41 -32.56,82.87 -32.61,83.32 -32.81,83.74 -33.01,84.15 -33.33,84.48 -33.65,84.81 -34.06,85.02 -34.47,85.23 -34.92,85.30 -35.38,85.37 -35.83,85.29 -36.28,85.20 -36.68,84.98 -37.09,84.76 -37.40,84.43 -37.71,84.09 -37.90,83.67 -38.08,83.25 -38.13,82.79 -38.17,82.33 -38.07,81.89 -37.96,81.44 -37.96,81.44 -37.96,81.44 -36.97,79.22 -35.97,77.00 -35.36,75.64 -34.75,74.28 -33.58,72.13 -32.41,69.99 -31.93,68.96 -31.46,67.93 -31.05,66.94 -30.65,65.95 -30.16,64.73 -29.66,63.51 -28.84,61.55 -28.01,59.60 -27.70,58.52 -27.39,57.44 -27.15,56.38 -26.92,55.33 -26.64,53.72 -26.36,52.12 -26.21,50.03 -26.06,47.95 -26.06,45.72 -26.07,43.49 -26.19,40.84 -26.31,38.19 -26.51,36.93 -26.71,35.68 -26.93,34.56 -27.14,33.43 -27.34,32.39 -27.54,31.34 -27.90,29.85 -28.26,28.36 -28.81,26.57 -29.36,24.78 -29.89,23.15 -30.41,21.52 -31.18,19.65 -31.94,17.77 -32.71,17.02 -33.48,16.28 -33.99,14.63 -34.50,12.98 -33.89,11.93 -33.29,10.89 -31.89,10.14 -30.49,9.40 -29.02,8.87 -27.55,8.35 -25.15,7.35 -22.76,6.34 -19.54,5.02 -16.31,3.70 -12.45,2.23 -8.59,0.75 -4.61,-0.61 -0.63,-1.99 -0.38,-2.03 -0.13,-2.08 0.11,-2.07 0.36,-2.05 0.60,-1.98 0.84,-1.91 1.06,-1.78 1.27,-1.65 1.45,-1.47 1.63,-1.29 1.76,-1.08 1.90,-0.86 1.97,-0.62 2.05,-0.38 2.06,-0.13 2.08,0.11 2.04,0.36 1.99,0.61 1.89,0.84 1.79,1.07 1.64,1.26 1.48,1.46 1.28,1.62 1.09,1.78 0.86,1.88 0.63,1.99 0.63,1.99 L 0.63,1.99 Z"></path></g><g stroke-linecap="round"><g transform="translate(564.234375 327.1366492835623) rotate(0 117.2395923751127 -30.07159228101372)"><path d="M-0.13 0.71 C38.93 -9.36, 194.58 -50.65, 233.76 -60.85 M-1.65 0.04 C37.85 -9.89, 196.79 -49.98, 236.13 -59.91" stroke="#1e1e1e" stroke-width="1" fill="none"></path></g><g transform="translate(564.234375 327.1366492835623) rotate(0 117.2395923751127 -30.07159228101372)"><path d="M212.49 -44.13 C215.75 -46.43, 222.63 -51.08, 236.73 -60.67 M210.38 -43.55 C218.54 -48.94, 225.77 -54.09, 236.32 -59.08" stroke="#1e1e1e" stroke-width="1" fill="none"></path></g><g transform="translate(564.234375 327.1366492835623) rotate(0 117.2395923751127 -30.07159228101372)"><path d="M207.47 -64.03 C211.93 -61.3, 220.08 -60.92, 236.73 -60.67 M205.36 -63.45 C215.2 -62.71, 223.96 -61.77, 236.32 -59.08" stroke="#1e1e1e" stroke-width="1" fill="none"></path></g></g><mask></mask><g transform="translate(582.11328125 253.35930553356232) rotate(344.4611702273619 85.84195709228516 22.5)"><text x="0" y="0" font-family="Virgil, Segoe UI Emoji" font-size="36px" fill="#1e1e1e" text-anchor="start" style="white-space: pre;" direction="ltr" dominant-baseline="text-before-edge">handleOps</text></g><g stroke-linecap="round" transform="translate(815.484375 236.26555553356232) rotate(0 136.798828125 71.064453125)"><path d="M32 0 M32 0 C113.03 2, 193.4 3.28, 241.6 0 M32 0 C111.75 -0.71, 191.55 -0.86, 241.6 0 M241.6 0 C261.72 -1.01, 275.46 10.89, 273.6 32 M241.6 0 C261.4 1.19, 274.39 8.82, 273.6 32 M273.6 32 C274.19 60.1, 274.66 88.27, 273.6 110.13 M273.6 32 C274.34 63.41, 273.13 93.25, 273.6 110.13 M273.6 110.13 C275.03 133.32, 261.32 140.38, 241.6 142.13 M273.6 110.13 C271.67 133.62, 261.28 141.02, 241.6 142.13 M241.6 142.13 C187.47 141.02, 134.46 141.67, 32 142.13 M241.6 142.13 C196.06 143.28, 149.45 142.18, 32 142.13 M32 142.13 C12.37 144.11, -0.58 133.33, 0 110.13 M32 142.13 C10.85 140.87, 2.26 131.32, 0 110.13 M0 110.13 C-0.68 93.07, -0.25 77.76, 0 32 M0 110.13 C0.28 89.24, -0.8 66.61, 0 32 M0 32 C-1.06 10.51, 11.74 0.47, 32 0 M0 32 C0.77 11.63, 9.96 -0.81, 32 0" stroke="#1e1e1e" stroke-width="1" fill="none"></path></g><g transform="translate(842.42578125 279.3280555335623) rotate(0 111.71411895751953 27.53906249999997)"><text x="0" y="0" font-family="Virgil, Segoe UI Emoji" font-size="44.062499999999964px" fill="#1e1e1e" text-anchor="start" style="white-space: pre;" direction="ltr" dominant-baseline="text-before-edge">EntryPoint</text></g><g transform="translate(593.0510989195966 181.52112940400954) rotate(342.04132216104466 50.286277770996094 36.738074373554696)"><text x="0" y="0" font-family="Virgil, Segoe UI Emoji" font-size="58.78091899768752px" fill="#e03131" text-anchor="start" style="white-space: pre;" direction="ltr" dominant-baseline="text-before-edge">gas</text></g><g stroke-linecap="round"><g transform="translate(802.5546875 328.5038367835623) rotate(0 -136.12136595671063 18.13937237014062)"><path d="M-0.98 0.61 C-46.18 6.41, -226.96 29.11, -272.33 35 M0.7 -0.11 C-44.49 5.84, -227.14 30.71, -272.95 36.39" stroke="#1e1e1e" stroke-width="1" fill="none"></path></g><g transform="translate(802.5546875 328.5038367835623) rotate(0 -136.12136595671063 18.13937237014062)"><path d="M-245.3 23.61 C-252.2 24.7, -256.02 28.49, -271.71 36.41 M-247.16 22.11 C-252.88 26.83, -261.13 30.47, -272.74 35.71" stroke="#1e1e1e" stroke-width="1" fill="none"></path></g><g transform="translate(802.5546875 328.5038367835623) rotate(0 -136.12136595671063 18.13937237014062)"><path d="M-242.64 43.95 C-250.12 40.89, -254.48 40.54, -271.71 36.41 M-244.49 42.46 C-250.89 41.74, -259.85 39.92, -272.74 35.71" stroke="#1e1e1e" stroke-width="1" fill="none"></path></g></g><mask></mask><g transform="translate(621.21875 355.4374305335623) rotate(352.2750507366439 55.20597839355469 22.5)"><text x="0" y="0" font-family="Virgil, Segoe UI Emoji" font-size="36px" fill="#1e1e1e" text-anchor="start" style="white-space: pre;" direction="ltr" dominant-baseline="text-before-edge">refund</text></g><g stroke-linecap="round" transform="translate(1314.7890625 50.85539928356232) rotate(0 168.525390625 63.994140625)"><path d="M32 0 M32 0 C133.97 -0.32, 237.88 0.03, 305.05 0 M32 0 C98.44 1.61, 165.01 1.12, 305.05 0 M305.05 0 C327.92 -1.22, 337.4 10.44, 337.05 32 M305.05 0 C324.96 0.58, 337.84 11.27, 337.05 32 M337.05 32 C337.51 43.94, 336.21 57.55, 337.05 95.99 M337.05 32 C338.29 48.79, 337.21 65.31, 337.05 95.99 M337.05 95.99 C336.96 116.45, 325.53 128.07, 305.05 127.99 M337.05 95.99 C334.79 115.74, 326.78 129.86, 305.05 127.99 M305.05 127.99 C242.42 126.88, 182.87 126.59, 32 127.99 M305.05 127.99 C240.17 127.81, 174.38 127.63, 32 127.99 M32 127.99 C11.17 127.9, -0.02 116.55, 0 95.99 M32 127.99 C10.61 125.98, -1.24 115.37, 0 95.99 M0 95.99 C-0.13 76.33, -1.91 53.27, 0 32 M0 95.99 C1.06 81.81, -0.58 65.33, 0 32 M0 32 C-1.02 8.98, 11.95 1.3, 32 0 M0 32 C1.54 11.55, 9.81 -0.44, 32 0" stroke="#1e1e1e" stroke-width="1" fill="none"></path></g><g transform="translate(1346.8125 90.48430553356232) rotate(0 137.98794555664062 22.5)"><text x="0" y="0" font-family="Virgil, Segoe UI Emoji" font-size="36px" fill="#1e1e1e" text-anchor="start" style="white-space: pre;" direction="ltr" dominant-baseline="text-before-edge">BasePaymaster</text></g><g stroke-linecap="round" transform="translate(1288.50390625 31.19133678356232) rotate(0 227.1640625 141.1015625)"><path d="M32 0 M32 0 C160.95 -0.15, 289.48 1.68, 422.33 0 M32 0 C184.46 1.38, 338.09 0.28, 422.33 0 M422.33 0 C444.1 -1.27, 455.83 11.56, 454.33 32 M422.33 0 C445.05 0.6, 453.85 10.95, 454.33 32 M454.33 32 C456.62 112.36, 454.07 191.56, 454.33 250.2 M454.33 32 C454.84 93.46, 456.51 153.99, 454.33 250.2 M454.33 250.2 C453.3 272.63, 442.6 280.78, 422.33 282.2 M454.33 250.2 C455.64 272.57, 444.05 283.51, 422.33 282.2 M422.33 282.2 C294.3 282.54, 165.41 283.17, 32 282.2 M422.33 282.2 C343.21 283.96, 263.39 282.87, 32 282.2 M32 282.2 C10.59 282.6, -0.36 271.8, 0 250.2 M32 282.2 C12.5 281.04, -2.13 270.65, 0 250.2 M0 250.2 C-1.95 188.54, -0.56 128.72, 0 32 M0 250.2 C-0.8 185.66, -0.82 119.25, 0 32 M0 32 C1.47 10.52, 11.07 -1.78, 32 0 M0 32 C1.86 8.93, 12.91 0.05, 32 0" stroke="#1e1e1e" stroke-width="1" fill="none"></path></g><g transform="translate(1332.62109375 225.98039928356232) rotate(0 181.36795043945312 22.5)"><text x="0" y="0" font-family="Virgil, Segoe UI Emoji" font-size="36px" fill="#1e1e1e" text-anchor="start" style="white-space: pre;" direction="ltr" dominant-baseline="text-before-edge">Paymaster Contract</text></g><g stroke-linecap="round"><g transform="translate(1081.7109375 231.74211803356232) rotate(0 100.65621164826211 -53.54549279411788)"><path d="M0.46 0.7 C33.95 -17.09, 168.66 -88.12, 202.08 -106.01 M-0.76 0.02 C32.52 -18.18, 167.97 -90.23, 201.42 -107.79" stroke="#1e1e1e" stroke-width="1" fill="none"></path></g><g transform="translate(1081.7109375 231.74211803356232) rotate(0 100.65621164826211 -53.54549279411788)"><path d="M182.46 -84.62 C190.19 -95.34, 197.03 -103.18, 199.66 -107.04 M181.42 -86.06 C186.44 -90.64, 191.89 -98.12, 202.12 -107.42" stroke="#1e1e1e" stroke-width="1" fill="none"></path></g><g transform="translate(1081.7109375 231.74211803356232) rotate(0 100.65621164826211 -53.54549279411788)"><path d="M172.86 -102.76 C184.47 -106.37, 195.1 -107.07, 199.66 -107.04 M171.82 -104.2 C179.26 -103.98, 187.24 -106.7, 202.12 -107.42" stroke="#1e1e1e" stroke-width="1" fill="none"></path></g></g><mask></mask><g transform="translate(1046.77734375 83.57805553356232) rotate(331.7968112765207 112.1939468383789 45)"><text x="0" y="0" font-family="Virgil, Segoe UI Emoji" font-size="36px" fill="#1e1e1e" text-anchor="start" style="white-space: pre;" direction="ltr" dominant-baseline="text-before-edge">validate </text><text x="0" y="45" font-family="Virgil, Segoe UI Emoji" font-size="36px" fill="#1e1e1e" text-anchor="start" style="white-space: pre;" direction="ltr" dominant-baseline="text-before-edge">paymasterOp</text></g><g transform="translate(1046.0109369407598 27.069566060263227) rotate(335.13360445236384 48.387062072753906 35.351130948829244)"><text x="0" y="0" font-family="Virgil, Segoe UI Emoji" font-size="56.56180951812681px" fill="#e03131" text-anchor="start" style="white-space: pre;" direction="ltr" dominant-baseline="text-before-edge">gas</text></g><g stroke-linecap="round"><g transform="translate(1312.8671875 148.80852428356232) rotate(0 -108.92695411371528 69.69323646773584)"><path d="M0.06 0.72 C-36.15 23.97, -180.81 115.28, -216.99 138.39 M-1.36 0.06 C-37.75 23.51, -181.85 115.89, -217.92 139.33" stroke="#1e1e1e" stroke-width="1" fill="none"></path></g><g transform="translate(1312.8671875 148.80852428356232) rotate(0 -108.92695411371528 69.69323646773584)"><path d="M-198.58 115.51 C-207.75 123.19, -211.9 131.78, -218.46 140.33 M-200.02 114.49 C-204.43 119.91, -208.56 126.51, -217.3 139.56" stroke="#1e1e1e" stroke-width="1" fill="none"></path></g><g transform="translate(1312.8671875 148.80852428356232) rotate(0 -108.92695411371528 69.69323646773584)"><path d="M-187.46 132.75 C-200.06 134.88, -207.8 137.91, -218.46 140.33 M-188.9 131.73 C-195.71 133.41, -202.25 136.29, -217.3 139.56" stroke="#1e1e1e" stroke-width="1" fill="none"></path></g></g><mask></mask><g transform="translate(1159.9140625 226.90618053356232) rotate(327.366649768012 55.20597839355469 22.5)"><text x="0" y="0" font-family="Virgil, Segoe UI Emoji" font-size="36px" fill="#1e1e1e" text-anchor="start" style="white-space: pre;" direction="ltr" dominant-baseline="text-before-edge">refund</text></g><g stroke-linecap="round" transform="translate(1321.203125 401.2694617835623) rotate(0 133.576171875 71.439453125)"><path d="M32 0 M32 0 C74.68 1.51, 117.13 2.51, 235.15 0 M32 0 C112.11 -1.75, 192.86 -0.87, 235.15 0 M235.15 0 C256.42 -0.39, 266.05 11.95, 267.15 32 M235.15 0 C256.25 -1.91, 267.59 12.28, 267.15 32 M267.15 32 C267.06 52.99, 268.32 75.89, 267.15 110.88 M267.15 32 C268.2 56.36, 268.09 79.56, 267.15 110.88 M267.15 110.88 C266.63 131.23, 255.91 142.22, 235.15 142.88 M267.15 110.88 C266.55 131.15, 258.35 144.97, 235.15 142.88 M235.15 142.88 C158.81 141.06, 80.54 143.55, 32 142.88 M235.15 142.88 C168.28 141.95, 102.57 143.24, 32 142.88 M32 142.88 C12.25 144.25, -1.79 132.5, 0 110.88 M32 142.88 C8.39 143.81, -2.16 130.63, 0 110.88 M0 110.88 C-0.88 93.85, -1.33 79.03, 0 32 M0 110.88 C0.37 94.4, -0.71 78.09, 0 32 M0 32 C-0.64 10.84, 11.17 1.2, 32 0 M0 32 C0.51 8.99, 8.68 -1.03, 32 0" stroke="#1e1e1e" stroke-width="1" fill="none"></path></g><g transform="translate(1336.2578125 450.9139930335623) rotate(0 113.36396789550781 22.5)"><text x="0" y="0" font-family="Virgil, Segoe UI Emoji" font-size="36px" fill="#1e1e1e" text-anchor="start" style="white-space: pre;" direction="ltr" dominant-baseline="text-before-edge">BaseAccount</text></g><g stroke-linecap="round" transform="translate(1313.32421875 395.0116492835623) rotate(0 207.720703125 149.517578125)"><path d="M32 0 M32 0 C140.34 -0.41, 249.65 -2.51, 383.44 0 M32 0 C103.16 2.07, 174.79 1.89, 383.44 0 M383.44 0 C404.08 0.19, 414.65 8.76, 415.44 32 M383.44 0 C402.75 -0.03, 415.61 11.58, 415.44 32 M415.44 32 C414.31 81.11, 414.32 132.74, 415.44 267.04 M415.44 32 C413.33 93.85, 414.41 155.33, 415.44 267.04 M415.44 267.04 C414.2 289.53, 404.8 297.37, 383.44 299.04 M415.44 267.04 C416.7 288.91, 402.54 300.6, 383.44 299.04 M383.44 299.04 C257.89 300.95, 130.19 299.3, 32 299.04 M383.44 299.04 C295.41 300.62, 207.34 299.75, 32 299.04 M32 299.04 C9.57 300.22, -0.44 287.44, 0 267.04 M32 299.04 C9.49 300.97, 0.54 289.25, 0 267.04 M0 267.04 C2.19 218.02, 1.42 168.44, 0 32 M0 267.04 C-2.32 201.88, -1.47 135.4, 0 32 M0 32 C-1.9 11.14, 10.12 -1.07, 32 0 M0 32 C0.48 9.55, 8.86 1.83, 32 0" stroke="#1e1e1e" stroke-width="1" fill="none"></path></g><g transform="translate(1457.3671875 614.1053992835623) rotate(0 54.91796875 22.5)"><text x="0" y="0" font-family="Virgil, Segoe UI Emoji" font-size="36px" fill="#1e1e1e" text-anchor="start" style="white-space: pre;" direction="ltr" dominant-baseline="text-before-edge">Wallet</text></g><g stroke-linecap="round"><g transform="translate(1050.6953125 380.5546180335623) rotate(0 126.3027439327119 82.22510695391333)"><path d="M0.01 1.05 C42.46 28.17, 212.02 135.75, 254.05 162.77 M-1.45 0.55 C40.97 27.8, 210.85 136.6, 253.51 163.9" stroke="#1e1e1e" stroke-width="1" fill="none"></path></g><g transform="translate(1050.6953125 380.5546180335623) rotate(0 126.3027439327119 82.22510695391333)"><path d="M225.98 158.63 C230.12 157.13, 238.04 161.75, 252.46 165.69 M224.97 157.53 C231.85 158.7, 237.95 159.63, 253.18 164.37" stroke="#1e1e1e" stroke-width="1" fill="none"></path></g><g transform="translate(1050.6953125 380.5546180335623) rotate(0 126.3027439327119 82.22510695391333)"><path d="M237.05 141.35 C238.47 144.09, 243.68 152.96, 252.46 165.69 M236.03 140.25 C240.06 145.62, 243.44 150.78, 253.18 164.37" stroke="#1e1e1e" stroke-width="1" fill="none"></path></g></g><mask></mask><g transform="translate(1100.24609375 402.2303992835623) rotate(33.85034758555834 94.30194854736328 22.5)"><text x="0" y="0" font-family="Virgil, Segoe UI Emoji" font-size="36px" fill="#1e1e1e" text-anchor="start" style="white-space: pre;" direction="ltr" dominant-baseline="text-before-edge">validateOp</text></g><g stroke-linecap="round"><g transform="translate(976.0703125 380.8632117835623) rotate(0 168.78445124696475 114.04949468710458)"><path d="M-0.91 -0.01 C8.68 19.4, 0.46 79.55, 56.63 117.53 C112.79 155.51, 289.16 209.29, 336.1 227.87 M0.82 -1.06 C10.37 18.55, -0.35 77.56, 55.92 115.93 C112.2 154.3, 291.89 210.64, 338.47 229.16" stroke="#1e1e1e" stroke-width="1" fill="none"></path></g></g><mask></mask><g transform="translate(1302.68359375 591.6444617835623) rotate(0 -9.29296875 20.5)" stroke="none"><path fill="#1e1e1e" d="M 1.74,-1.66 Q 1.74,-1.66 3.23,0.09 4.71,1.85 5.98,3.32 7.24,4.80 8.33,6.02 9.42,7.23 10.32,8.32 11.22,9.40 11.96,10.34 12.70,11.28 13.74,12.72 14.78,14.16 15.45,15.07 16.11,15.99 16.68,17.10 17.25,18.21 17.52,19.29 17.79,20.37 17.88,21.50 17.97,22.63 17.38,24.36 16.78,26.10 15.50,26.75 14.23,27.41 12.31,27.97 10.40,28.53 8.72,28.95 7.04,29.37 4.58,30.15 2.11,30.93 -1.14,32.17 -4.41,33.41 -7.82,34.76 -11.23,36.10 -14.30,37.26 -17.38,38.42 -20.04,39.30 -22.70,40.17 -24.66,40.77 -26.63,41.37 -27.89,41.83 -29.15,42.30 -32.05,41.64 -34.94,40.98 -35.04,40.70 -35.15,40.41 -35.16,40.11 -35.17,39.80 -35.08,39.51 -34.99,39.22 -34.81,38.97 -34.63,38.73 -34.39,38.55 -34.14,38.37 -33.85,38.28 -33.56,38.19 -33.26,38.20 -32.95,38.21 -32.67,38.31 -32.38,38.42 -32.15,38.61 -31.91,38.80 -31.75,39.05 -31.58,39.31 -31.51,39.60 -31.43,39.90 -31.46,40.20 -31.48,40.50 -31.60,40.78 -31.72,41.06 -31.92,41.29 -32.13,41.51 -32.39,41.66 -32.65,41.81 -32.95,41.87 -33.25,41.93 -33.55,41.89 -33.85,41.85 -34.12,41.71 -34.40,41.58 -34.61,41.37 -34.83,41.15 -34.96,40.88 -35.10,40.61 -35.14,40.31 -35.18,40.01 -35.12,39.71 -35.07,39.41 -34.92,39.14 -34.77,38.88 -34.54,38.68 -34.32,38.47 -34.04,38.35 -33.76,38.23 -33.46,38.21 -33.16,38.18 -32.86,38.25 -32.57,38.33 -32.31,38.49 -32.05,38.65 -31.86,38.89 -31.67,39.13 -31.67,39.13 -31.67,39.13 -30.92,38.96 -30.17,38.79 -28.90,38.52 -27.63,38.25 -25.73,37.61 -23.83,36.98 -21.30,36.00 -18.77,35.03 -15.81,33.71 -12.84,32.39 -9.53,30.81 -6.23,29.23 -3.03,27.66 0.15,26.09 2.63,24.86 5.11,23.64 6.79,22.93 8.46,22.22 10.24,21.82 12.02,21.43 11.77,20.09 11.53,18.75 11.02,17.76 10.51,16.76 9.76,15.34 9.00,13.92 8.40,12.97 7.80,12.03 7.06,10.99 6.32,9.94 5.29,8.73 4.25,7.52 2.94,6.15 1.63,4.79 -0.05,3.23 -1.74,1.66 -1.92,1.43 -2.09,1.20 -2.20,0.93 -2.32,0.66 -2.36,0.37 -2.41,0.09 -2.38,-0.19 -2.36,-0.48 -2.27,-0.76 -2.17,-1.04 -2.02,-1.28 -1.86,-1.53 -1.65,-1.73 -1.44,-1.93 -1.19,-2.07 -0.94,-2.22 -0.66,-2.30 -0.38,-2.38 -0.08,-2.39 0.20,-2.40 0.48,-2.34 0.77,-2.28 1.03,-2.16 1.29,-2.03 1.52,-1.85 1.74,-1.66 1.74,-1.66 L 1.74,-1.66 Z"></path></g><g transform="translate(969.74609375 515.4218055335623) rotate(30.759010953975952 91.02595520019531 22.5)"><text x="0" y="0" font-family="Virgil, Segoe UI Emoji" font-size="36px" fill="#1e1e1e" text-anchor="start" style="white-space: pre;" direction="ltr" dominant-baseline="text-before-edge">executeOp</text></g></svg>